<?xml version="1.0" standalone="no"?>
<!DOCTYPE svg PUBLIC "-//W3C//DTD SVG 20010904//EN"
 "http://www.w3.org/TR/2001/REC-SVG-20010904/DTD/svg10.dtd">
<svg version="1.0" xmlns="http://www.w3.org/2000/svg"
 width="260.000000pt" height="260.000000pt" viewBox="0 0 260.000000 260.000000"
 preserveAspectRatio="xMidYMid meet">
<metadata>
Created by potrace 1.11, written by Peter Selinger 2001-2013
</metadata>
<g transform="translate(0.000000,260.000000) scale(0.100000,-0.100000)"
fill="#000000" stroke="none">
<path d="M2174 2045 c-52 -22 -59 -38 -61 -159 -3 -131 -11 -301 -17 -336 -7
-44 -18 -114 -22 -140 -5 -43 -72 -291 -97 -365 l-24 -70 -56 111 c-70 140
-117 255 -147 364 -13 47 -34 123 -47 170 -12 46 -30 91 -38 99 -22 22 -132
27 -178 7 -46 -19 -58 -44 -87 -191 -25 -129 -42 -186 -83 -275 -34 -76 -147
-270 -157 -270 -12 0 -97 374 -115 503 -4 27 -9 59 -12 70 -2 12 -7 112 -9
221 -6 224 -13 251 -69 262 -59 11 -161 -14 -220 -54 -61 -42 -75 -94 -70
-257 2 -71 6 -146 10 -165 97 -549 231 -936 348 -1005 55 -33 179 -22 246 22
55 35 134 143 178 241 14 31 43 107 65 167 21 61 41 117 44 125 3 8 20 -28 38
-80 78 -223 131 -323 222 -416 55 -56 112 -78 200 -77 121 2 184 75 278 319
71 188 166 564 182 726 3 35 8 66 11 71 9 15 3 209 -8 249 -16 60 -54 93 -135
117 -92 27 -135 31 -170 16z"/>
<path d="M274 1794 c-54 -26 -83 -104 -62 -165 35 -103 198 -120 253 -27 73
124 -59 257 -191 192z"/>
<path d="M280 1428 c-52 -45 -84 -144 -96 -300 -15 -192 -3 -461 24 -518 20
-41 64 -58 154 -59 126 -2 132 12 112 254 -9 121 -9 236 1 413 8 149 1 181
-43 202 -42 19 -134 24 -152 8z"/>
</g>
</svg>
